<svg width="20" height="20" viewBox="0 0 20 20" fill="none" xmlns="http://www.w3.org/2000/svg">
<path fill-rule="evenodd" clip-rule="evenodd" d="M14.0739 15.2653C13.9305 14.9045 13.7272 14.5895 13.5489 14.3203C13.4589 14.1853 13.3664 14.0478 13.2855 13.9062C12.9614 13.3428 13.073 13.1145 13.5989 12.2337L13.6839 12.0895C14.1097 11.372 14.133 10.6837 14.1547 10.077C14.1647 9.77866 14.1747 9.49783 14.2322 9.23366C14.3664 8.62366 15.6555 8.46116 16.4547 8.36533C16.5889 8.88949 16.6664 9.43533 16.6664 10.0003C16.6664 12.1412 15.648 14.0445 14.0739 15.2653ZM9.99971 3.33366C10.513 3.33366 11.0089 3.39699 11.4889 3.50699C11.348 3.81699 11.1305 4.09949 10.8439 4.32366C10.6622 4.46699 10.458 4.58616 10.2555 4.70699C9.71305 5.03033 9.09888 5.39699 8.71388 6.10199C8.20055 7.04366 8.20055 8.00533 8.20055 8.85366C8.20055 9.98283 8.16388 10.6503 7.41055 11.2395C6.26971 12.1337 4.52388 11.6345 3.44388 11.1803C3.37555 10.7962 3.33305 10.4028 3.33305 10.0003C3.33305 6.32449 6.32388 3.33366 9.99971 3.33366ZM9.99972 1.66699C5.40472 1.66699 1.66638 5.40533 1.66638 10.0003C1.66638 14.5945 5.40472 18.3337 9.99972 18.3337C14.5947 18.3337 18.333 14.5945 18.333 10.0003C18.333 5.40533 14.5947 1.66699 9.99972 1.66699Z" fill="#181B32"/>
<mask id="mask0" mask-type="alpha" maskUnits="userSpaceOnUse" x="1" y="1" width="18" height="18">
<path fill-rule="evenodd" clip-rule="evenodd" d="M14.0739 15.2653C13.9305 14.9045 13.7272 14.5895 13.5489 14.3203C13.4589 14.1853 13.3664 14.0478 13.2855 13.9062C12.9614 13.3428 13.073 13.1145 13.5989 12.2337L13.6839 12.0895C14.1097 11.372 14.133 10.6837 14.1547 10.077C14.1647 9.77866 14.1747 9.49783 14.2322 9.23366C14.3664 8.62366 15.6555 8.46116 16.4547 8.36533C16.5889 8.88949 16.6664 9.43533 16.6664 10.0003C16.6664 12.1412 15.648 14.0445 14.0739 15.2653ZM9.99971 3.33366C10.513 3.33366 11.0089 3.39699 11.4889 3.50699C11.348 3.81699 11.1305 4.09949 10.8439 4.32366C10.6622 4.46699 10.458 4.58616 10.2555 4.70699C9.71305 5.03033 9.09888 5.39699 8.71388 6.10199C8.20055 7.04366 8.20055 8.00533 8.20055 8.85366C8.20055 9.98283 8.16388 10.6503 7.41055 11.2395C6.26971 12.1337 4.52388 11.6345 3.44388 11.1803C3.37555 10.7962 3.33305 10.4028 3.33305 10.0003C3.33305 6.32449 6.32388 3.33366 9.99971 3.33366ZM9.99972 1.66699C5.40472 1.66699 1.66638 5.40533 1.66638 10.0003C1.66638 14.5945 5.40472 18.3337 9.99972 18.3337C14.5947 18.3337 18.333 14.5945 18.333 10.0003C18.333 5.40533 14.5947 1.66699 9.99972 1.66699Z" fill="white"/>
</mask>
<g mask="url(#mask0)">
<rect width="20" height="20" fill="#181B32"/>
</g>
</svg>
