<svg width="20" height="20" viewBox="0 0 20 20" fill="none" xmlns="http://www.w3.org/2000/svg">
<path fill-rule="evenodd" clip-rule="evenodd" d="M14.074 15.2653C13.9307 14.9045 13.7273 14.5895 13.549 14.3203C13.459 14.1853 13.3665 14.0478 13.2857 13.9062C12.9615 13.3428 13.0732 13.1145 13.599 12.2337L13.684 12.0895C14.1098 11.372 14.1332 10.6837 14.1548 10.077C14.1648 9.77866 14.1748 9.49783 14.2323 9.23366C14.3665 8.62366 15.6557 8.46116 16.4548 8.36533C16.589 8.88949 16.6665 9.43533 16.6665 10.0003C16.6665 12.1412 15.6482 14.0445 14.074 15.2653ZM9.99984 3.33366C10.5132 3.33366 11.009 3.39699 11.489 3.50699C11.3482 3.81699 11.1307 4.09949 10.844 4.32366C10.6623 4.46699 10.4582 4.58616 10.2557 4.70699C9.71317 5.03033 9.099 5.39699 8.714 6.10199C8.20067 7.04366 8.20067 8.00533 8.20067 8.85366C8.20067 9.98283 8.164 10.6503 7.41067 11.2395C6.26984 12.1337 4.524 11.6345 3.444 11.1803C3.37567 10.7962 3.33317 10.4028 3.33317 10.0003C3.33317 6.32449 6.324 3.33366 9.99984 3.33366ZM9.99984 1.66699C5.40484 1.66699 1.6665 5.40533 1.6665 10.0003C1.6665 14.5945 5.40484 18.3337 9.99984 18.3337C14.5948 18.3337 18.3332 14.5945 18.3332 10.0003C18.3332 5.40533 14.5948 1.66699 9.99984 1.66699Z" fill="white"/>
<mask id="mask0" mask-type="alpha" maskUnits="userSpaceOnUse" x="1" y="1" width="18" height="18">
<path fill-rule="evenodd" clip-rule="evenodd" d="M14.074 15.2653C13.9307 14.9045 13.7273 14.5895 13.549 14.3203C13.459 14.1853 13.3665 14.0478 13.2857 13.9062C12.9615 13.3428 13.0732 13.1145 13.599 12.2337L13.684 12.0895C14.1098 11.372 14.1332 10.6837 14.1548 10.077C14.1648 9.77866 14.1748 9.49783 14.2323 9.23366C14.3665 8.62366 15.6557 8.46116 16.4548 8.36533C16.589 8.88949 16.6665 9.43533 16.6665 10.0003C16.6665 12.1412 15.6482 14.0445 14.074 15.2653ZM9.99984 3.33366C10.5132 3.33366 11.009 3.39699 11.489 3.50699C11.3482 3.81699 11.1307 4.09949 10.844 4.32366C10.6623 4.46699 10.4582 4.58616 10.2557 4.70699C9.71317 5.03033 9.099 5.39699 8.714 6.10199C8.20067 7.04366 8.20067 8.00533 8.20067 8.85366C8.20067 9.98283 8.164 10.6503 7.41067 11.2395C6.26984 12.1337 4.524 11.6345 3.444 11.1803C3.37567 10.7962 3.33317 10.4028 3.33317 10.0003C3.33317 6.32449 6.324 3.33366 9.99984 3.33366ZM9.99984 1.66699C5.40484 1.66699 1.6665 5.40533 1.6665 10.0003C1.6665 14.5945 5.40484 18.3337 9.99984 18.3337C14.5948 18.3337 18.3332 14.5945 18.3332 10.0003C18.3332 5.40533 14.5948 1.66699 9.99984 1.66699Z" fill="white"/>
</mask>
<g mask="url(#mask0)">
<rect width="20" height="20" fill="white"/>
</g>
</svg>
