<svg width="24" height="24" viewBox="0 0 24 24" fill="none" xmlns="http://www.w3.org/2000/svg">
<path fill-rule="evenodd" clip-rule="evenodd" d="M16.8887 18.3184C16.7167 17.8854 16.4727 17.5074 16.2587 17.1844C16.1507 17.0224 16.0397 16.8574 15.9427 16.6874C15.5537 16.0114 15.6877 15.7374 16.3187 14.6804L16.4207 14.5074C16.9317 13.6464 16.9597 12.8204 16.9857 12.0924C16.9977 11.7344 17.0097 11.3974 17.0787 11.0804C17.2397 10.3484 18.7867 10.1534 19.7457 10.0384C19.9067 10.6674 19.9997 11.3224 19.9997 12.0004C19.9997 14.5694 18.7777 16.8534 16.8887 18.3184ZM11.9997 4.0004C12.6157 4.0004 13.2107 4.0764 13.7867 4.2084C13.6177 4.5804 13.3567 4.9194 13.0127 5.1884C12.7947 5.3604 12.5497 5.5034 12.3067 5.6484C11.6557 6.0364 10.9187 6.4764 10.4567 7.3224C9.84069 8.4524 9.84069 9.6064 9.84069 10.6244C9.84069 11.9794 9.79669 12.7804 8.89269 13.4874C7.52369 14.5604 5.42869 13.9614 4.13269 13.4164C4.05069 12.9554 3.99969 12.4834 3.99969 12.0004C3.99969 7.5894 7.5887 4.0004 11.9997 4.0004ZM11.9997 2.0004C6.48569 2.0004 1.99969 6.4864 1.99969 12.0004C1.99969 17.5134 6.48569 22.0004 11.9997 22.0004C17.5137 22.0004 21.9997 17.5134 21.9997 12.0004C21.9997 6.4864 17.5137 2.0004 11.9997 2.0004Z" fill="#181B32"/>
<mask id="mask0" mask-type="alpha" maskUnits="userSpaceOnUse" x="1" y="2" width="21" height="21">
<path fill-rule="evenodd" clip-rule="evenodd" d="M16.8887 18.3184C16.7167 17.8854 16.4727 17.5074 16.2587 17.1844C16.1507 17.0224 16.0397 16.8574 15.9427 16.6874C15.5537 16.0114 15.6877 15.7374 16.3187 14.6804L16.4207 14.5074C16.9317 13.6464 16.9597 12.8204 16.9857 12.0924C16.9977 11.7344 17.0097 11.3974 17.0787 11.0804C17.2397 10.3484 18.7867 10.1534 19.7457 10.0384C19.9067 10.6674 19.9997 11.3224 19.9997 12.0004C19.9997 14.5694 18.7777 16.8534 16.8887 18.3184ZM11.9997 4.0004C12.6157 4.0004 13.2107 4.0764 13.7867 4.2084C13.6177 4.5804 13.3567 4.9194 13.0127 5.1884C12.7947 5.3604 12.5497 5.5034 12.3067 5.6484C11.6557 6.0364 10.9187 6.4764 10.4567 7.3224C9.84069 8.4524 9.84069 9.6064 9.84069 10.6244C9.84069 11.9794 9.79669 12.7804 8.89269 13.4874C7.52369 14.5604 5.42869 13.9614 4.13269 13.4164C4.05069 12.9554 3.99969 12.4834 3.99969 12.0004C3.99969 7.5894 7.5887 4.0004 11.9997 4.0004ZM11.9997 2.0004C6.48569 2.0004 1.99969 6.4864 1.99969 12.0004C1.99969 17.5134 6.48569 22.0004 11.9997 22.0004C17.5137 22.0004 21.9997 17.5134 21.9997 12.0004C21.9997 6.4864 17.5137 2.0004 11.9997 2.0004Z" fill="white"/>
</mask>
<g mask="url(#mask0)">
<rect width="24" height="24" fill="#181B32"/>
</g>
</svg>
